<svg width="16" height="17" viewBox="0 0 16 17" fill="none" xmlns="http://www.w3.org/2000/svg">
<path fill-rule="evenodd" clip-rule="evenodd" d="M10 3.16673V2.50006C10 2.13206 10.2987 1.83339 10.6667 1.83339C11.0347 1.83339 11.3333 2.13206 11.3333 2.50006V3.16673C12.806 3.16673 14 4.36073 14 5.83339V12.5001C14 13.9727 12.806 15.1667 11.3333 15.1667C9.42667 15.1667 6.57267 15.1667 4.66667 15.1667C3.194 15.1667 2 13.9727 2 12.5001V5.83339C2 4.36073 3.194 3.16673 4.66667 3.16673V2.50006C4.66667 2.13206 4.96533 1.83339 5.33333 1.83339C5.70133 1.83339 6 2.13206 6 2.50006V3.16673H10ZM12.6667 8.50006H3.33333V12.5001C3.33333 13.2361 3.93 13.8334 4.66667 13.8334H11.3333C12.0693 13.8334 12.6667 13.2361 12.6667 12.5001V8.50006ZM11.3333 4.50006V5.16673C11.3333 5.53473 11.0347 5.83339 10.6667 5.83339C10.2987 5.83339 10 5.53473 10 5.16673V4.50006H6V5.16673C6 5.53473 5.70133 5.83339 5.33333 5.83339C4.96533 5.83339 4.66667 5.53473 4.66667 5.16673V4.50006C3.93 4.50006 3.33333 5.09673 3.33333 5.83339V7.16673H12.6667V5.83339C12.6667 5.09673 12.0693 4.50006 11.3333 4.50006Z" fill="#64748B"/>
</svg>
