<svg width="11.193359" height="13.785156" viewBox="0 0 11.1934 13.7852" fill="none" xmlns="http://www.w3.org/2000/svg" xmlns:xlink="http://www.w3.org/1999/xlink">
	<desc>
			Created with Pixso.
	</desc>
	<defs/>
	<path id="Vector" d="M9.16 12.7C9.01 13.02 8.78 13.3 8.48 13.49C8.18 13.68 7.84 13.78 7.48 13.78L1.83 13.78C1.59 13.78 1.35 13.73 1.13 13.64C0.91 13.55 0.7 13.41 0.53 13.24C0.36 13.07 0.23 12.87 0.14 12.64C0.04 12.42 0 12.18 0 11.94L0 3.7C0 3.35 0.1 3 0.29 2.7C0.48 2.41 0.75 2.17 1.07 2.02L1.07 11.23C1.07 11.43 1.11 11.62 1.18 11.8C1.26 11.97 1.37 12.14 1.5 12.27C1.64 12.41 1.8 12.52 1.98 12.59C2.16 12.66 2.35 12.7 2.54 12.7L9.16 12.7ZM6.61 3.6L6.61 0L3.7 0C3.46 0 3.22 0.04 3 0.14C2.77 0.23 2.57 0.36 2.4 0.53C2.23 0.71 2.09 0.91 2 1.13C1.91 1.35 1.86 1.59 1.86 1.84L1.86 10.64C1.86 10.98 2 11.3 2.23 11.54C2.47 11.78 2.79 11.91 3.13 11.91L9.35 11.91C9.59 11.91 9.83 11.87 10.05 11.77C10.28 11.68 10.48 11.55 10.65 11.38C10.82 11.21 10.96 11 11.05 10.78C11.14 10.56 11.19 10.32 11.19 10.07L11.19 4.71L7.72 4.71C7.43 4.71 7.15 4.59 6.94 4.39C6.73 4.18 6.61 3.9 6.61 3.6ZM7.25 0L11.19 4.09L7.82 4.09C7.67 4.09 7.52 4.03 7.42 3.92C7.31 3.81 7.25 3.67 7.25 3.52L7.25 0Z" fill="#ED7232" fill-opacity="1.000000" fill-rule="nonzero"/>
</svg>
