<svg width="24" height="24" viewBox="0 0 24 24" fill="none" xmlns="http://www.w3.org/2000/svg">
<path d="M21.9777 9.91873H18.7174C18.5107 9.91873 18.3209 9.79532 18.2473 9.60224C18.0942 9.20096 17.6756 8.86755 17.257 8.86755H7.79641V10.9345C7.79641 11.366 7.29318 11.6017 6.96172 11.3255L1.9585 7.15615C1.71435 6.9527 1.71435 6.57771 1.9585 6.37425L6.96172 2.20491C7.29318 1.92869 7.79641 2.16439 7.79641 2.59586V4.66285H17.257C20.0069 4.66285 22.2062 6.68146 22.4834 9.34709C22.515 9.65131 22.2836 9.91873 21.9777 9.91873Z" fill="#232A2F"/>
<path d="M2.02666 13.8077H5.28332C5.48998 13.8077 5.67977 13.9311 5.75342 14.1242C5.90649 14.5255 6.3251 14.8589 6.74371 14.8589H16.2043V13.0658C16.2043 12.6415 16.693 12.4035 17.027 12.6652L22.0299 16.5841C22.2803 16.7803 22.2914 17.1555 22.053 17.3661L17.0501 21.7853C16.7216 22.0755 16.2043 21.8423 16.2043 21.4039V19.0636H6.74371C4.0997 19.0636 1.8206 16.9654 1.52114 14.3837C1.4857 14.0781 1.71907 13.8077 2.02666 13.8077Z" fill="#232A2F"/>
</svg>
